<svg width="1400" height="120" viewBox="0 0 1400 120" fill="none" xmlns="http://www.w3.org/2000/svg">
<path d="M1419.73 81.3319C1417.84 79.5314 1415.95 78.0832 1414.05 76.6057L1411.22 74.541L1410.86 74.2866L1410.51 74.0518L1409.79 73.5821L1408.39 72.6329L1406.98 71.6838L1405.57 70.8227L1402.74 69.0908C1402.5 68.944 1402.27 68.807 1402.02 68.6798L1401.31 68.2786L1399.9 67.4762C1398.96 66.9772 1398.02 66.4586 1397.07 65.9595C1396.13 65.4801 1395.19 65.0006 1394.24 64.5309L1391.42 63.1806L1388.61 61.9183C1388.14 61.703 1387.66 61.5171 1387.2 61.3214L1385.79 60.7343C1384.84 60.3331 1383.9 59.9809 1382.97 59.6188L1381.56 59.0709C1381.1 58.8947 1380.62 58.7382 1380.15 58.562L1378.74 58.063C1378.28 57.8967 1377.8 57.7205 1377.33 57.5737L1374.52 56.6637C1374.28 56.5855 1374.05 56.5072 1373.8 56.4387L1373.09 56.2332L1371.68 55.8222C1370.74 55.5482 1369.81 55.2645 1368.87 55.0296L1366.05 54.2958C1365.82 54.2273 1365.58 54.1783 1365.35 54.1196L1364.65 53.9533L1363.24 53.6304C1361.37 53.1705 1359.48 52.8378 1357.61 52.4562C1357.38 52.4072 1357.14 52.3583 1356.91 52.3192L1356.21 52.2017L1354.8 51.9669L1353.4 51.7321C1352.93 51.6538 1352.45 51.5657 1351.99 51.507L1349.17 51.1254L1347.76 50.9395C1347.3 50.8808 1346.82 50.8416 1346.35 50.7927C1344.48 50.6068 1342.6 50.3915 1340.73 50.2643C1340.26 50.2252 1339.79 50.1958 1339.32 50.1665L1337.91 50.0784C1336.97 50.0295 1336.04 49.9903 1335.09 49.9414L1332.28 49.8533L1329.47 49.8044C1299.49 49.2271 1269.52 49.2075 1239.55 49.9316L1233.92 50.0588C1232.99 50.0784 1232.05 50.1078 1231.12 50.1371L1228.32 50.2252L1217.07 50.5676L1205.84 50.9884L1203.04 51.096C1202.11 51.1352 1201.16 51.1841 1200.23 51.2232L1194.61 51.4874L1183.38 52.0158L1177.76 52.28C1175.88 52.3681 1174.01 52.4464 1172.14 52.5638L1149.66 53.875C1119.7 55.7439 1089.75 58.0141 1059.8 60.1864L1037.34 61.8302L1014.88 63.3469L1009.26 63.7285C1007.39 63.846 1005.51 63.9536 1003.64 64.071L992.407 64.7364L981.177 65.4018L979.768 65.4899L978.359 65.5584L975.555 65.6953L969.933 65.9693L958.702 66.5173L953.08 66.7913L950.276 66.9283C949.346 66.9772 948.402 67.0065 947.472 67.0457L936.241 67.4958C934.367 67.5741 932.493 67.6328 930.619 67.6915L924.997 67.8774L919.375 68.0633C917.501 68.122 915.627 68.1612 913.753 68.2199L902.509 68.5134L891.265 68.7287L885.643 68.8363L880.021 68.9048L868.776 69.032C865.028 69.0614 861.28 69.0712 857.532 69.081C850.036 69.1397 842.54 69.081 835.044 69.0516H833.635L832.226 69.032L829.422 69.0027L823.8 68.9342L818.178 68.8657C816.304 68.8363 814.43 68.7972 812.556 68.7581C808.808 68.6798 805.06 68.6113 801.312 68.5232L790.068 68.2101L787.25 68.1318L784.432 68.034L778.81 67.8383L773.188 67.6426C771.314 67.5741 769.44 67.486 767.566 67.4077L761.944 67.1631L759.126 67.0457L757.717 66.987L756.308 66.9087L745.064 66.3118C737.568 65.9106 730.071 65.5584 722.562 65.0397L711.318 64.3157L705.696 63.9536C704.752 63.8949 703.822 63.8362 702.878 63.7677L700.06 63.5622L677.558 61.9281L655.056 60.157C640.05 58.973 625.058 57.7792 610.052 56.6246L604.43 56.1843L601.612 55.969L598.794 55.7635L587.55 54.9611L576.306 54.1588L565.062 53.4542C557.566 52.9943 550.07 52.4855 542.56 52.1235L536.938 51.8201L531.316 51.5559L525.694 51.2917C524.75 51.2526 523.82 51.2037 522.876 51.1645L520.058 51.0569C505.066 50.4209 490.074 50.0197 475.081 49.7946L469.459 49.7163L466.655 49.6772L463.851 49.6576L452.607 49.5989H446.998L441.376 49.6283L435.754 49.6479L430.132 49.7163C426.384 49.7653 422.636 49.8044 418.888 49.8631L407.644 50.1077L404.84 50.1665L403.431 50.1958L402.022 50.235L396.4 50.4013L385.156 50.734C377.66 50.9297 370.177 51.2428 362.681 51.507L357.059 51.7125C355.185 51.781 353.311 51.8397 351.437 51.9278L340.206 52.417C310.249 53.7282 280.279 55.4308 250.336 57.564L244.713 57.9651L241.909 58.1608C240.979 58.2293 240.035 58.3076 239.105 58.3761L227.875 59.247L222.253 59.6775C220.379 59.8243 218.505 59.9907 216.63 60.1472L205.4 61.0964L202.596 61.3312C201.666 61.4095 200.722 61.4976 199.792 61.5856L194.17 62.0944L182.939 63.1219L171.709 64.2178L166.1 64.7658L160.492 65.3529L149.261 66.5271L138.031 67.7698L132.423 68.396L126.814 69.0516L121.206 69.7072C119.332 69.9323 117.458 70.1378 115.597 70.3824L93.1502 73.2298L90.346 73.5821C89.8809 73.6408 89.4158 73.6995 88.9371 73.7582L87.5281 73.9539L81.9198 74.7367L70.6893 76.3121L65.0809 77.0949C64.1507 77.2221 63.2069 77.3689 62.2767 77.5059L59.4725 77.9364L48.2558 79.6488L42.6474 80.5099C40.7733 80.8035 38.913 81.1264 37.039 81.4297L25.8222 83.2889C24.892 83.4454 23.9482 83.5922 23.018 83.7585L20.2138 84.2576L14.6054 85.2557L8.99704 86.2537C7.12301 86.5962 5.26267 86.9583 3.38865 87.3105L-2.21974 88.3771L-3.62868 88.6413L-5.03761 88.9251L-7.8418 89.4926L-10.646 90.0601L-12.0549 90.3439L-13.4502 90.6472L-19.0586 91.8704L-19.0859 88.6804L-18.7576 119.327L-18.785 116.137L-13.1903 114.317C-12.7252 114.171 -12.2601 114.014 -11.795 113.867L-10.3998 113.446L-7.59558 112.595L-4.79139 111.754L-3.39613 111.333L-2.00088 110.932L3.60751 109.337L6.41171 108.544L7.80696 108.143L8.50459 107.947L9.20222 107.761L14.8106 106.274L20.419 104.787L23.2232 104.043C23.6883 103.916 24.1534 103.798 24.6184 103.691L26.0137 103.348L37.2305 100.589L40.0347 99.8941L41.4299 99.5516C41.895 99.4342 42.3601 99.3168 42.8252 99.2189L48.4336 97.9469L59.6503 95.393L62.4545 94.7569L63.8498 94.434C64.3149 94.3264 64.78 94.2383 65.2451 94.1405L70.8534 92.9761L82.0702 90.6374L87.6786 89.473L89.0739 89.1795C89.5389 89.0816 90.004 89.0033 90.4828 88.9153L93.287 88.3869L115.721 84.15C117.595 83.7879 119.455 83.4748 121.329 83.1421L126.937 82.1636L132.546 81.1851L138.154 80.2555L149.371 78.4159L160.588 76.684L166.196 75.8131L171.804 75.0009L183.035 73.3766C186.783 72.858 190.517 72.359 194.265 71.8599L199.874 71.1065C200.804 70.9793 201.748 70.8521 202.678 70.7346L205.482 70.3824L216.713 68.9831C218.587 68.7483 220.461 68.5037 222.321 68.2884L227.929 67.6426L239.16 66.3509C240.09 66.2433 241.034 66.1357 241.964 66.028L244.768 65.7345L250.377 65.1474C280.32 61.9868 310.263 59.4818 340.22 57.5444L351.451 56.8203C353.325 56.6931 355.199 56.605 357.073 56.4974L362.695 56.1941C370.191 55.8027 377.673 55.3525 385.169 55.059L396.4 54.5697L402.022 54.3251L403.431 54.2664L404.84 54.2175L407.644 54.1294L418.888 53.7771C419.818 53.738 420.762 53.7282 421.692 53.7184L424.496 53.6695L430.118 53.5717L435.741 53.4738L441.363 53.4445L446.985 53.4249H449.789L451.198 53.4053C451.663 53.4053 452.128 53.4053 452.607 53.4151L463.851 53.5227L466.655 53.5521L469.459 53.6108L475.081 53.738C490.074 54.1001 505.066 54.7067 520.072 55.6657L522.889 55.832C523.833 55.8907 524.763 55.9592 525.707 56.0277L531.329 56.4191L536.951 56.8203L542.573 57.2704C550.07 57.8282 557.579 58.5914 565.075 59.2861L576.333 60.3429L587.591 61.5563L598.849 62.7696L601.667 63.0729L604.485 63.4056L610.107 64.0612L621.365 65.3724L626.987 66.028L632.609 66.6934L655.124 69.3647L677.64 72.0361L700.142 74.5019L702.96 74.8052C703.904 74.9031 704.834 74.9911 705.778 75.0792L711.4 75.6272L722.657 76.7133C730.154 77.4961 737.663 78.0245 745.159 78.6312L756.404 79.5216L757.812 79.6293C758.278 79.6586 758.756 79.688 759.221 79.7173L762.039 79.9032L767.661 80.2653L770.479 80.4512C771.423 80.5099 772.353 80.5784 773.297 80.6273L778.919 80.9307L784.541 81.234C785.485 81.2829 786.415 81.3416 787.359 81.3808L790.177 81.4982L801.421 81.9777C802.365 82.0266 803.295 82.0462 804.239 82.0755L807.057 82.1636L812.679 82.3397C814.553 82.3984 816.427 82.4571 818.301 82.5061L823.923 82.6137L829.545 82.7213L832.349 82.7703L833.758 82.7996H835.167C842.663 82.8485 850.159 82.9464 857.655 82.8681L863.277 82.8388H866.082C867.012 82.8192 867.956 82.8192 868.886 82.7996L880.13 82.6137C882.004 82.5843 883.878 82.555 885.752 82.5159L891.374 82.3593C895.122 82.2517 898.87 82.1636 902.618 82.0462L913.849 81.6156L916.653 81.508C917.583 81.4688 918.527 81.4395 919.457 81.3906L925.079 81.1166L930.701 80.8426C932.575 80.7545 934.449 80.6665 936.323 80.5491L947.554 79.8935C948.484 79.8347 949.428 79.7956 950.358 79.7271L953.162 79.5216L958.784 79.1204L970.015 78.3083L975.637 77.9071L978.441 77.7016L979.85 77.6038L981.259 77.4765L992.489 76.4883L1003.72 75.5C1005.59 75.3336 1007.47 75.1771 1009.34 75.0009L1014.95 74.4432L1037.41 72.2024L1059.87 69.7659C1074.84 68.1514 1089.82 66.5075 1104.78 64.9223L1116.01 63.7188C1116.94 63.6209 1117.88 63.5133 1118.81 63.4252L1121.62 63.1512L1127.23 62.5935L1138.46 61.478C1142.21 61.1159 1145.94 60.7148 1149.69 60.4114L1172.15 58.474C1174.02 58.2978 1175.9 58.1902 1177.77 58.0532L1183.39 57.6618L1194.62 56.879L1200.25 56.4876C1201.18 56.4289 1202.12 56.3506 1203.05 56.2919L1205.85 56.1353L1217.08 55.5189C1220.83 55.3428 1224.58 55.1862 1228.32 55.0101L1231.12 54.8829C1232.05 54.8437 1232.99 54.7948 1233.92 54.7752L1239.55 54.5893C1269.52 53.5325 1299.49 53.5814 1329.47 54.4817L1332.29 54.5599C1333.23 54.5991 1334.16 54.6382 1335.11 54.6872C1336.05 54.7557 1336.98 54.8144 1337.92 54.8926L1339.33 55.0198C1339.8 55.059 1340.28 55.1079 1340.74 55.1666L1342.15 55.333C1342.38 55.3623 1342.62 55.3819 1342.85 55.421L1343.55 55.5287L1346.36 55.9592C1346.83 56.0375 1347.31 56.0962 1347.77 56.1843L1349.18 56.468L1352 57.0356L1352.36 57.1041C1352.48 57.1334 1352.59 57.1628 1352.71 57.1921L1353.41 57.3683L1354.82 57.7205L1356.23 58.0728L1356.93 58.2489C1357.16 58.3076 1357.39 58.3859 1357.64 58.4544L1360.45 59.2959L1361.17 59.5014C1361.29 59.5405 1361.4 59.5699 1361.52 59.609L1361.88 59.7265L1363.29 60.2157L1364.69 60.705L1365.41 60.9496L1365.76 61.067C1365.88 61.1062 1365.99 61.1551 1366.12 61.204L1368.94 62.3097L1369.65 62.5837C1369.77 62.6326 1369.88 62.6718 1370 62.7207L1370.36 62.8772L1371.77 63.4937L1373.18 64.1102L1373.89 64.4233C1374.12 64.5309 1374.35 64.6483 1374.6 64.7658L1377.43 66.1357L1377.79 66.302L1378.14 66.4879L1378.85 66.8598L1380.26 67.6132C1380.73 67.8676 1381.21 68.1025 1381.67 68.3667L1383.08 69.1788C1384.02 69.7268 1384.97 70.2454 1385.91 70.8521L1387.32 71.7327L1388.03 72.173L1388.39 72.3981L1388.74 72.6329L1391.57 74.5215L1394.41 76.5372C1395.35 77.2417 1396.29 77.9658 1397.24 78.6703C1398.18 79.414 1399.12 80.1772 1400.07 80.9307L1401.49 82.1244L1402.2 82.7213C1402.43 82.917 1402.68 83.1127 1402.91 83.3378L1405.75 85.921L1407.17 87.2127L1408.59 88.6315L1410.01 90.0503L1410.72 90.7549L1411.08 91.1071L1411.44 91.4887L1414.28 94.571C1416.18 96.7922 1418.07 98.945 1419.97 101.636L1420 104.317L1419.73 78.5823L1419.75 81.2634L1419.73 81.3319Z" fill="#038BBB"/>
<path d="M1408.18 52.3334L1406.78 51.9812L1405.37 51.6583L1402.55 51.0125C1401.6 50.807 1400.67 50.6113 1399.73 50.4058L1396.91 49.8383C1393.16 49.1044 1389.4 48.4586 1385.66 47.8812C1381.91 47.3137 1378.15 46.7951 1374.4 46.3646C1370.65 45.934 1366.9 45.5426 1363.14 45.2393C1361.27 45.0729 1359.39 44.9457 1357.52 44.799C1356.57 44.7305 1355.64 44.6815 1354.7 44.6228C1353.76 44.5641 1352.83 44.5054 1351.88 44.4565C1348.13 44.2608 1344.39 44.1042 1340.64 43.9966C1336.89 43.8889 1333.14 43.8498 1329.39 43.84C1299.41 43.6541 1269.44 43.6835 1239.47 43.9966C1224.48 44.1434 1209.5 44.3488 1194.5 44.6326C1187.01 44.7794 1179.51 44.9066 1172.03 45.0631L1149.56 45.5818C1119.58 46.3254 1089.61 47.2061 1059.66 48.0672C999.716 49.8285 939.788 51.2179 879.833 51.5506L868.589 51.6094L857.345 51.6387C849.849 51.6681 842.353 51.6583 834.857 51.6583L823.613 51.6289L817.991 51.6094L812.368 51.58L801.124 51.5017L789.88 51.3941C786.132 51.3647 782.384 51.306 778.636 51.2669C774.888 51.2179 771.14 51.1788 767.392 51.1201C763.644 51.0614 759.896 51.0125 756.148 50.944L744.904 50.7385C737.408 50.5917 729.911 50.4743 722.415 50.2884L711.171 50.034C707.423 49.9459 703.675 49.8676 699.927 49.7698L677.439 49.1827L654.951 48.5368L609.974 47.255C602.478 47.0397 594.982 46.844 587.486 46.6581L576.242 46.3646L564.997 46.1102C550.005 45.7579 535.013 45.4741 520.021 45.2589C505.029 45.0338 490.037 44.9066 475.058 44.8381L469.436 44.8185C467.562 44.8185 465.688 44.799 463.814 44.799H441.326L435.704 44.8087L430.082 44.8577C415.089 44.9262 400.111 45.1121 385.119 45.298C377.623 45.3861 370.127 45.5035 362.644 45.6111C358.896 45.6698 355.148 45.7188 351.4 45.7872L340.156 45.9829C310.185 46.5113 280.215 47.1865 250.244 48.028C220.273 48.8695 190.316 49.8578 160.346 51.0614L149.115 51.5115L137.885 51.991L132.263 52.2356L126.64 52.49C122.892 52.6661 119.144 52.8227 115.41 53.0086L92.9354 54.1045C89.1874 54.2807 85.4393 54.4862 81.705 54.6916L70.4745 55.2983L64.8525 55.6017C62.9784 55.6995 61.1044 55.8169 59.2304 55.9246L47.9999 56.5802L42.3779 56.9129L36.7558 57.2651L25.5254 57.9794C10.5469 58.9775 -4.43164 60.0049 -19.4101 61.2672L-19.4375 58.0773H-19.3965L-19.0682 88.7241L-19.0955 85.5341L-13.4871 84.4676L-12.0782 84.2034L-10.6693 83.9587L-7.86507 83.4597L-5.06088 82.9607L-3.65194 82.716L-2.243 82.4812L3.36538 81.5516C5.2394 81.2483 7.09975 80.9254 8.97377 80.6318L14.5822 79.761L20.1905 78.8901L22.9947 78.4595C23.9249 78.3128 24.8688 78.1856 25.7989 78.0486L37.0294 76.434C38.9034 76.1698 40.7774 75.8861 42.6378 75.6317L48.2462 74.888L59.4766 73.3909L62.2808 73.0191C63.211 72.8918 64.1548 72.7646 65.085 72.657L70.6934 71.9721L81.9238 70.6021L87.5322 69.9172L88.9412 69.7508C89.4062 69.6921 89.8713 69.6432 90.3501 69.5943L93.1543 69.2812L115.615 66.7958C117.489 66.5805 119.363 66.4044 121.224 66.2087L126.832 65.6313L132.44 65.054L138.049 64.5061L149.279 63.4199L160.51 62.4023L166.132 61.8934L171.754 61.414L182.984 60.455L194.215 59.5646C197.963 59.271 201.697 58.9579 205.445 58.6937L216.676 57.8718C218.55 57.7348 220.424 57.588 222.298 57.4608L227.92 57.0792L239.15 56.316C240.08 56.2573 241.024 56.1888 241.954 56.13L244.759 55.9539L250.381 55.6114C280.338 53.7523 310.295 52.2649 340.265 51.1103L351.496 50.6798C353.37 50.6015 355.244 50.5526 357.118 50.4841L362.74 50.3079C370.236 50.0731 377.718 49.8089 385.215 49.6328L396.459 49.3392L402.081 49.1924C403.011 49.1631 403.955 49.1435 404.885 49.1337L407.689 49.0848L418.933 48.8695C422.681 48.8108 426.429 48.7815 430.177 48.7325L435.799 48.6738L441.422 48.6543L447.044 48.6347H449.848C450.778 48.6249 451.722 48.6151 452.652 48.6347L463.896 48.6836H466.7L469.504 48.7325L475.127 48.801C490.119 48.9967 505.111 49.3392 520.103 49.8872L522.921 49.985C523.865 50.0144 524.795 50.0633 525.739 50.0927L531.361 50.3177L536.983 50.5428L542.605 50.807C550.101 51.1299 557.597 51.5604 565.093 51.9616L576.337 52.5683L587.582 53.263L598.826 53.9578L601.644 54.1339L604.461 54.3198L610.083 54.7014C625.076 55.6995 640.081 56.7367 655.087 57.7641L677.589 59.3004L700.091 60.7192L702.909 60.8954C703.853 60.9541 704.783 61.003 705.727 61.0519L711.349 61.365L722.593 61.9913C730.089 62.4414 737.585 62.7447 745.082 63.0872L756.326 63.596L757.735 63.6645L759.144 63.7135L761.961 63.8211L767.583 64.0266C769.458 64.0951 771.331 64.1734 773.206 64.2321L778.828 64.4082L784.45 64.5843L787.268 64.6724L790.072 64.7409L801.316 65.0149C805.064 65.0932 808.812 65.1421 812.56 65.2106C814.434 65.2399 816.308 65.2791 818.182 65.2986L823.804 65.3574L829.426 65.4161L832.23 65.4454H833.639L835.048 65.465C842.544 65.4846 850.04 65.5335 857.537 65.4846C861.285 65.465 865.033 65.465 868.781 65.4356L880.025 65.3182L885.647 65.2595L891.269 65.1616L902.513 64.9659L913.757 64.7115C915.631 64.6626 917.505 64.6333 919.379 64.5745L925.001 64.4082L930.623 64.2419C932.497 64.1831 934.371 64.1342 936.245 64.0657L947.476 63.6743C948.406 63.6352 949.35 63.6156 950.28 63.5765L953.084 63.459L958.706 63.2144L969.937 62.735L975.559 62.4903L978.363 62.3729L979.772 62.3142L981.181 62.2457L992.411 61.6684L1003.64 61.0911C1005.52 60.9932 1007.39 60.9052 1009.26 60.7975L1014.89 60.4648L1037.36 59.1438L1059.82 57.7054C1089.78 55.8071 1119.74 53.8208 1149.69 52.1867L1172.17 51.0418C1174.04 50.9342 1175.92 50.8755 1177.79 50.7972L1183.41 50.5623L1194.64 50.0927L1200.26 49.8578C1201.19 49.8187 1202.14 49.7795 1203.07 49.7404L1205.87 49.6523L1217.12 49.2805L1228.36 48.9772C1230.23 48.9282 1232.11 48.8695 1233.98 48.8304L1239.6 48.713C1269.58 48.0672 1299.55 48.0769 1329.53 48.576L1332.33 48.6151L1335.15 48.6836C1336.1 48.7228 1337.03 48.7521 1337.97 48.801C1338.91 48.8598 1339.84 48.8989 1340.79 48.9576C1342.66 49.0652 1344.54 49.2512 1346.41 49.4175C1346.88 49.4566 1347.35 49.4958 1347.82 49.5447L1349.23 49.7111L1352.05 50.0437C1352.51 50.0927 1352.99 50.1709 1353.45 50.2394L1354.86 50.4449L1356.27 50.6504L1356.97 50.7483C1357.2 50.7874 1357.44 50.8265 1357.67 50.8657C1359.54 51.1984 1361.42 51.4919 1363.3 51.8833C1364.25 52.079 1365.18 52.2552 1366.12 52.4509L1368.94 53.0869C1369.88 53.2924 1370.81 53.537 1371.76 53.7718L1373.17 54.1339L1373.88 54.31C1374.11 54.3687 1374.34 54.4372 1374.59 54.5057L1377.41 55.2983C1377.87 55.4255 1378.35 55.5821 1378.82 55.7191L1380.22 56.1496C1380.69 56.2964 1381.17 56.4334 1381.63 56.5899L1383.04 57.0596C1383.99 57.3825 1384.92 57.6761 1385.86 58.0283L1387.27 58.5372C1387.73 58.7133 1388.21 58.8699 1388.68 59.0558L1391.5 60.1517L1394.31 61.3259L1397.13 62.5686C1398.08 62.9992 1399.02 63.4493 1399.95 63.8798L1401.36 64.5745L1402.07 64.9268C1402.3 65.0442 1402.53 65.1519 1402.78 65.2889L1405.61 66.7958L1407.02 67.5492L1408.43 68.3711L1409.84 69.1931L1410.55 69.6041L1410.91 69.8095L1411.26 70.0346L1414.09 71.8253C1415.98 73.1169 1417.87 74.3694 1419.76 75.935L1419.51 52.9401L1419.54 55.5625C1415.78 54.2513 1412.01 53.2239 1408.27 52.2943L1408.18 52.3334Z" fill="#FBB817"/>
<path d="M1419.18 29.8662C1415.45 30.7371 1411.7 31.422 1407.96 32.0385L1406.55 32.2733L1405.15 32.4886L1402.34 32.9191C1401.41 33.0561 1400.47 33.1931 1399.54 33.3203L1396.73 33.7019C1389.25 34.6902 1381.77 35.4437 1374.27 36.0504C1359.29 37.2441 1344.32 37.7921 1329.32 37.841C1299.35 38.0563 1269.37 38.1248 1239.4 38.0172C1224.41 37.9682 1209.41 37.8802 1194.43 37.7334L1171.95 37.5181L1149.46 37.2441C1119.47 36.8527 1089.49 36.3635 1059.52 35.8938C999.55 34.9251 939.595 34.201 879.64 34.1716H857.152C849.656 34.1716 842.159 34.2108 834.663 34.2303C819.671 34.2988 804.693 34.3869 789.701 34.5435C774.708 34.7 759.73 34.8664 744.738 35.1208C729.745 35.336 714.767 35.6198 699.775 35.9036L677.3 36.3635L654.826 36.8527L609.876 37.8312C602.38 37.9976 594.898 38.1444 587.402 38.2911L576.158 38.5162L564.914 38.7119C549.921 38.9859 534.943 39.2207 519.951 39.4066C504.959 39.6023 489.98 39.7295 474.988 39.8274C467.492 39.8763 459.996 39.9057 452.513 39.9252L441.269 39.9448H430.025C415.033 39.9448 400.054 39.8763 385.062 39.798C377.566 39.7687 370.07 39.71 362.574 39.661L351.33 39.5828L340.086 39.4849C280.131 38.9761 220.162 38.0954 160.193 36.7157C130.209 36.0308 100.225 35.2088 70.2402 34.2206C55.248 33.7313 40.2558 33.1931 25.2636 32.606C10.2715 31.9993 -4.72071 31.3731 -19.7266 30.5903L-19.4393 58.0374H-19.3983L-19.4256 54.8474C-4.44713 54.0059 10.5314 53.321 25.5099 52.6654C40.4884 52.0196 55.4669 51.4227 70.459 50.8845C100.43 49.7788 130.387 48.8492 160.357 48.0468C220.299 46.4421 280.24 45.3364 340.181 44.6025L351.426 44.4655L362.67 44.3481C370.166 44.2698 377.662 44.1817 385.144 44.123C400.136 43.986 415.115 43.8588 430.107 43.8099L435.729 43.7806H441.351L452.595 43.7414C460.091 43.7414 467.588 43.7414 475.084 43.761C490.076 43.8001 505.068 43.8784 520.047 44.0056C535.039 44.1426 550.031 44.3089 565.023 44.534L576.267 44.6906L587.511 44.8765C595.007 44.9939 602.503 45.1211 610 45.2581L654.976 46.0703L677.464 46.4812L699.953 46.8531C714.945 47.0781 729.937 47.3032 744.929 47.4695C759.921 47.6554 774.914 47.7729 789.892 47.8707C804.884 47.9686 819.876 47.9979 834.855 48.0175C842.351 48.0175 849.847 48.0175 857.343 47.9881L868.587 47.9588L879.831 47.9098C939.786 47.6456 999.728 46.7063 1059.67 45.5125C1089.64 44.9352 1119.61 44.3285 1149.58 43.8295L1172.06 43.4772L1194.53 43.1739C1209.52 42.9684 1224.5 42.8314 1239.49 42.7238C1269.46 42.4987 1299.45 42.4596 1329.42 42.5672C1344.41 42.5672 1359.4 43.0565 1374.4 44.1915C1381.89 44.7688 1389.4 45.4929 1396.9 46.4519L1399.72 46.8237C1400.66 46.9509 1401.59 47.0781 1402.53 47.2151L1405.35 47.6359L1406.76 47.8511L1408.17 48.086C1411.92 48.6926 1415.68 49.3678 1419.43 50.2191L1419.18 27.1655L1419.21 29.8466L1419.18 29.8662Z" fill="#E42270"/>
<path d="M1413.34 8.25858L1410.55 10.059L1410.19 10.2841L1409.84 10.4896L1409.14 10.9006L1407.74 11.7323L1406.35 12.564L1404.95 13.3175L1402.16 14.8341C1401.93 14.9613 1401.7 15.0788 1401.47 15.1962L1400.77 15.5485L1399.37 16.253C1398.44 16.6933 1397.51 17.1434 1396.58 17.5837L1393.79 18.8362L1390.99 20.0202L1388.18 21.1259C1387.72 21.3118 1387.25 21.4782 1386.79 21.6543L1385.39 22.1729C1384.46 22.5252 1383.53 22.8285 1382.59 23.1514L1381.19 23.6309C1380.73 23.7875 1380.26 23.9245 1379.8 24.081L1378.4 24.5213C1377.94 24.6681 1377.47 24.8247 1377.01 24.9519L1374.2 25.7543C1373.97 25.8228 1373.74 25.8913 1373.51 25.95L1372.81 26.1359L1371.41 26.4979C1370.48 26.7426 1369.54 26.9872 1368.61 27.2024L1365.81 27.858C1364.88 28.0635 1363.93 28.2495 1363 28.4354C1361.13 28.8463 1359.27 29.1399 1357.39 29.4726C1357.16 29.5117 1356.93 29.5606 1356.7 29.59L1356 29.6976L1354.59 29.9031L1353.18 30.1086C1352.71 30.1771 1352.25 30.2554 1351.77 30.3043L1348.97 30.6468L1347.56 30.8131C1347.09 30.8621 1346.63 30.9012 1346.15 30.9501C1344.27 31.1165 1342.4 31.3122 1340.53 31.4296C1339.6 31.4981 1338.65 31.5372 1337.72 31.5959C1336.79 31.6449 1335.85 31.684 1334.92 31.7231L1332.11 31.8014L1329.31 31.8503C1299.34 32.457 1269.37 32.5842 1239.38 32.0558L1233.76 31.9678C1231.89 31.9384 1230.01 31.8895 1228.14 31.8503L1216.9 31.5862L1205.65 31.2632L1202.83 31.185C1201.89 31.1556 1200.96 31.1165 1200.02 31.0773L1194.39 30.8621L1183.15 30.4413L1177.53 30.226C1175.65 30.1478 1173.78 30.0988 1171.91 30.001L1149.42 28.9344C1119.42 27.4079 1089.43 25.539 1059.44 23.7581L1036.93 22.4078L1014.43 21.1651L1008.81 20.8519C1006.94 20.7541 1005.06 20.666 1003.19 20.578L991.945 20.0398L980.701 19.5016L979.292 19.4331L977.883 19.3744L975.065 19.2668L969.443 19.0515L958.199 18.6112L952.577 18.3959L949.759 18.2883C948.815 18.2491 947.885 18.2296 946.941 18.2002L935.697 17.8479C933.823 17.7892 931.949 17.7403 930.075 17.6914L924.452 17.5544L918.83 17.4174C916.956 17.3685 915.082 17.3391 913.208 17.3L901.964 17.0847L890.72 16.9379L885.098 16.8694L879.476 16.8303L868.232 16.752C864.484 16.7422 860.736 16.752 856.988 16.752C849.492 16.7324 841.996 16.8107 834.499 16.8499H833.091L831.682 16.8792L828.877 16.9184L823.255 16.9966L817.633 17.0749C815.759 17.1043 813.885 17.1532 812.011 17.1923C808.263 17.2706 804.515 17.3391 800.767 17.437L789.523 17.7501L786.719 17.8284L783.914 17.9262L778.292 18.1219L772.67 18.3176C770.796 18.3861 768.922 18.4644 767.048 18.5427L761.426 18.7677L758.622 18.8852L757.213 18.9439L755.804 19.0124L744.574 19.5701C737.078 19.9517 729.595 20.2746 722.099 20.7541L710.869 21.4195L705.247 21.7522C704.316 21.8109 703.373 21.8598 702.442 21.9185L699.638 22.1044L677.177 23.6113L654.716 25.2357C639.738 26.3218 624.759 27.4079 609.781 28.4647L604.159 28.8659L601.355 29.0616L598.55 29.2475L587.32 29.9912L576.089 30.7349L564.859 31.3905C557.363 31.821 549.881 32.2809 542.385 32.6332L536.762 32.9169L531.14 33.1615L525.518 33.4062C524.588 33.4453 523.644 33.4942 522.714 33.5236L519.91 33.6312C504.931 34.2379 489.939 34.6391 474.961 34.8935L469.339 34.9816L466.534 35.0305L463.73 35.0599L452.486 35.1577C451.556 35.1675 450.612 35.1675 449.682 35.1675H435.634L430.012 35.1283C426.264 35.099 422.516 35.0794 418.767 35.0403L407.523 34.8641L404.719 34.825C403.789 34.8152 402.845 34.7957 401.915 34.7761L396.293 34.6489L385.049 34.3945C377.553 34.2477 370.057 34.0031 362.56 33.7976L356.938 33.641C355.064 33.5823 353.19 33.5432 351.316 33.4747L340.072 33.0931C310.088 32.0558 280.09 30.6859 250.092 28.9344L244.47 28.6115L241.652 28.4452C240.708 28.3864 239.778 28.3277 238.834 28.269L227.59 27.5547L221.968 27.1927C220.094 27.0752 218.22 26.9383 216.346 26.8013L205.102 26.0185C201.353 25.764 197.605 25.4705 193.857 25.1867L182.613 24.3354L171.369 23.4254L165.747 22.9655L160.125 22.4763L148.867 21.4978L137.609 20.4605L131.987 19.9419L126.365 19.3842L120.743 18.8264C118.869 18.6405 116.995 18.4644 115.121 18.2589L92.6192 15.8518L89.8013 15.5485C89.3362 15.4995 88.8574 15.4506 88.3923 15.3919L86.9834 15.2255L81.3614 14.5602L70.1035 13.2294L64.4815 12.564C63.5376 12.4564 62.6074 12.339 61.6636 12.2117L58.8457 11.8497L47.5879 10.4015L41.9658 9.67742C40.0918 9.42301 38.2178 9.15881 36.3438 8.89461L25.086 7.31922C24.1421 7.18223 23.2119 7.06481 22.2681 6.91803L19.4502 6.49728L13.8145 5.64598L8.17873 4.79468C6.30471 4.51091 4.43068 4.188 2.54298 3.89445L-3.09276 2.98444L-4.5017 2.75939L-5.91063 2.51476L-8.72851 2.02551L-11.5464 1.53625L-12.9553 1.29163L-14.3643 1.03722L-20 0L-19.7401 24.2571C-4.73424 25.4607 10.2579 26.4392 25.2638 27.3786L36.5079 28.044L42.13 28.3767L47.7521 28.6898L58.9962 29.3062C60.8702 29.4041 62.7442 29.5215 64.6183 29.6096L70.2403 29.8933L81.4845 30.4511C85.2325 30.637 88.9806 30.8327 92.7286 30.9893L115.217 32.0069C118.965 32.1733 122.713 32.32 126.461 32.4766L132.083 32.7114L137.705 32.9365L148.949 33.3768L160.193 33.7878C190.178 34.8837 220.162 35.7546 250.146 36.4885C280.131 37.2126 310.115 37.7801 340.1 38.1911L351.344 38.3476C355.092 38.3966 358.84 38.4357 362.588 38.4748C370.084 38.5531 377.58 38.651 385.076 38.7097C400.068 38.8369 415.06 38.9739 430.039 38.9837H441.283L452.527 38.9641L463.771 38.9152C465.645 38.9152 467.519 38.8956 469.393 38.876L475.015 38.8271C490.008 38.6999 504.986 38.514 519.978 38.2302C534.971 37.9562 549.949 37.6235 564.927 37.2126L576.172 36.919L587.416 36.5863C594.912 36.3613 602.394 36.146 609.89 35.9014L654.84 34.4532L677.314 33.7291L699.789 33.0539C703.537 32.9365 707.285 32.8484 711.033 32.7408L722.277 32.4375C729.773 32.2222 737.255 32.0754 744.752 31.8993L755.996 31.6449C759.744 31.5666 763.492 31.4981 767.24 31.4296C770.988 31.3513 774.736 31.2926 778.484 31.2339C782.232 31.1752 785.98 31.1067 789.728 31.0675L800.972 30.9208L812.216 30.8033L817.838 30.7446L823.46 30.7055L834.705 30.6272C842.201 30.5979 849.697 30.5587 857.193 30.5587H879.681C939.636 30.6761 999.605 31.8406 1059.57 33.3768C1089.56 34.1205 1119.54 34.8935 1149.53 35.5197L1172.01 35.9601C1179.51 36.0873 1187.01 36.1949 1194.5 36.3123C1209.5 36.5472 1224.49 36.694 1239.48 36.782C1269.46 36.9777 1299.43 36.8897 1329.41 36.5961C1333.15 36.5667 1336.9 36.5178 1340.65 36.4004C1344.4 36.283 1348.15 36.1166 1351.88 35.9014C1352.81 35.8524 1353.75 35.7839 1354.68 35.7252C1355.61 35.6567 1356.56 35.6078 1357.49 35.5295C1359.36 35.3828 1361.24 35.2458 1363.11 35.0696C1366.86 34.7467 1370.59 34.3455 1374.34 33.8954C1378.09 33.4453 1381.82 32.9169 1385.57 32.3298C1389.31 31.7427 1393.05 31.0773 1396.79 30.3337L1399.59 29.7563C1400.52 29.5509 1401.47 29.3552 1402.4 29.1399L1405.2 28.4843L1406.6 28.1516L1407.99 27.7896C1411.73 26.8404 1415.46 25.8032 1419.19 24.4822L1418.95 1.53625L1418.98 4.09994C1417.12 5.67533 1415.25 6.9376 1413.39 8.22923L1413.34 8.25858Z" fill="#2CB47D"/>
</svg>
