<svg width="49" height="47" viewBox="0 0 49 47" fill="none" xmlns="http://www.w3.org/2000/svg">
<path d="M26.4856 0C29.1874 0.00704218 30.5586 0.0211265 31.7426 0.0539901L32.2085 0.0704217C32.7465 0.0892009 33.2772 0.112675 33.9184 0.140843C36.4736 0.258213 38.2172 0.652576 39.747 1.23238C41.332 1.82862 42.6672 2.63612 44.0025 3.93893C45.2242 5.112 46.1691 6.53156 46.7715 8.09851C47.3647 9.5938 47.7681 11.298 47.8882 13.798C47.917 14.4224 47.941 14.9412 47.9602 15.4693L47.9747 15.9247C48.0107 17.0796 48.0251 18.42 48.0299 21.0608L48.0323 22.812V25.8871C48.0381 27.5993 48.0197 29.3115 47.9771 31.0232L47.9627 31.4785C47.9434 32.0067 47.9194 32.5255 47.8906 33.1499C47.7705 35.6499 47.3623 37.3517 46.7715 38.8494C46.1691 40.4163 45.2242 41.8359 44.0025 43.0089C42.8024 44.2031 41.3501 45.1267 39.747 45.7155C38.2172 46.2953 36.4736 46.6897 33.9184 46.807L32.2085 46.8775L31.7426 46.8915C30.5586 46.9244 29.1874 46.9408 26.4856 46.9455L24.6941 46.9479H21.5504C19.7979 46.9539 18.0454 46.9359 16.2935 46.8939L15.8276 46.8798C15.2575 46.8587 14.6875 46.8344 14.1177 46.807C11.5624 46.6897 9.81889 46.2953 8.2867 45.7155C6.68446 45.1264 5.233 44.2028 4.03356 43.0089C2.81104 41.8361 1.86523 40.4165 1.26218 38.8494C0.668996 37.3541 0.265536 35.6499 0.145459 33.1499L0.0734123 31.4785L0.0614049 31.0232C0.0171349 29.3115 -0.00288016 27.5993 0.00136599 25.8871V21.0608C-0.00528124 19.3486 0.012332 17.6364 0.0542002 15.9247L0.0710109 15.4693C0.0902233 14.9412 0.114239 14.4224 0.143057 13.798C0.263135 11.298 0.666594 9.59615 1.25978 8.09851C1.86423 6.53092 2.81171 5.1113 4.03596 3.93893C5.2347 2.74539 6.68532 1.82175 8.2867 1.23238C9.81889 0.652576 11.56 0.258213 14.1177 0.140843C14.7565 0.112675 15.2896 0.0892009 15.8276 0.0704217L16.2935 0.0563373C18.0446 0.0146306 19.7963 -0.0033678 21.548 0.00234722L26.4856 0ZM24.0168 11.737C20.8322 11.737 17.778 12.9735 15.5261 15.1746C13.2742 17.3758 12.0091 20.3611 12.0091 23.4739C12.0091 26.5868 13.2742 29.5721 15.5261 31.7732C17.778 33.9743 20.8322 35.2109 24.0168 35.2109C27.2015 35.2109 30.2557 33.9743 32.5076 31.7732C34.7595 29.5721 36.0246 26.5868 36.0246 23.4739C36.0246 20.3611 34.7595 17.3758 32.5076 15.1746C30.2557 12.9735 27.2015 11.737 24.0168 11.737ZM24.0168 16.4318C24.963 16.4316 25.8999 16.6136 26.774 16.9674C27.6482 17.3211 28.4425 17.8397 29.1116 18.4935C29.7808 19.1474 30.3116 19.9236 30.6738 20.7779C31.036 21.6323 31.2225 22.548 31.2227 23.4728C31.2228 24.3976 31.0366 25.3133 30.6747 26.1678C30.3128 27.0222 29.7822 27.7986 29.1133 28.4527C28.4444 29.1067 27.6503 29.6256 26.7762 29.9796C25.9022 30.3337 24.9654 30.516 24.0192 30.5161C22.1084 30.5161 20.2759 29.7742 18.9248 28.4535C17.5737 27.1328 16.8146 25.3416 16.8146 23.4739C16.8146 21.6062 17.5737 19.815 18.9248 18.4944C20.2759 17.1737 22.1084 16.4318 24.0192 16.4318M36.6273 8.21588C35.8312 8.21588 35.0676 8.52502 34.5047 9.0753C33.9417 9.62558 33.6254 10.3719 33.6254 11.1501C33.6254 11.9283 33.9417 12.6747 34.5047 13.2249C35.0676 13.7752 35.8312 14.0844 36.6273 14.0844C37.4235 14.0844 38.1871 13.7752 38.75 13.2249C39.313 12.6747 39.6293 11.9283 39.6293 11.1501C39.6293 10.3719 39.313 9.62558 38.75 9.0753C38.1871 8.52502 37.4235 8.21588 36.6273 8.21588Z" fill="white"/>
</svg>
