<svg width="71" height="47" viewBox="0 0 71 47" fill="none" xmlns="http://www.w3.org/2000/svg">
<path fill-rule="evenodd" clip-rule="evenodd" d="M35.0243 0C31.144 0 26.6185 0.0837253 22.2071 0.197353L22.0279 0.203333C17.5382 0.31995 13.9152 0.412647 11.0612 0.846224C8.08654 1.29774 5.61692 2.16191 3.64253 4.0248C1.66162 5.89367 0.798229 8.20509 0.390969 10.971C4.34919e-08 13.6323 0 17.0052 0 21.1975V25.7545C0 29.9408 4.34919e-08 33.3137 0.390969 35.978C0.794971 38.7439 1.66162 41.0553 3.64253 42.9242C5.61692 44.7901 8.08654 45.6513 11.0612 46.1028C13.9152 46.5364 17.5382 46.6291 22.0279 46.7457L22.2071 46.7517C26.6217 46.8653 31.144 46.949 35.0243 46.949C38.9047 46.949 43.4302 46.8653 47.8416 46.7517L48.0208 46.7457C52.5104 46.6291 56.1334 46.5364 58.9875 46.1028C61.9621 45.6513 64.4317 44.7871 66.4061 42.9242C68.387 41.0553 69.2537 38.7439 69.6577 35.978C70.0486 33.3167 70.0486 29.9438 70.0486 25.7515V21.1945C70.0486 17.0052 70.0486 13.6323 69.6577 10.971C69.2537 8.20509 68.387 5.89367 66.4061 4.0248C64.4317 2.15892 61.9621 1.29774 58.9875 0.846224C56.1334 0.412647 52.5104 0.31995 48.0175 0.203333L47.8416 0.197353C43.5703 0.0783692 39.2975 0.012579 35.0243 0ZM31.3492 31.4C30.9776 31.5948 30.5569 31.6966 30.129 31.6953C29.701 31.694 29.281 31.5895 28.9109 31.3924C28.5408 31.1954 28.2335 30.9125 28.0199 30.5722C27.8063 30.2319 27.6938 29.8461 27.6936 29.4534V17.4926C27.6938 17.0999 27.8063 16.7141 28.0199 16.3738C28.2335 16.0335 28.5408 15.7507 28.9109 15.5536C29.281 15.3565 29.701 15.252 30.129 15.2507C30.5569 15.2494 30.9776 15.3512 31.3492 15.546L42.7525 21.5264C43.1262 21.7226 43.4368 22.006 43.6529 22.3478C43.8689 22.6897 43.9827 23.0778 43.9827 23.473C43.9827 23.8682 43.8689 24.2563 43.6529 24.5982C43.4368 24.94 43.1262 25.2234 42.7525 25.4196L31.3492 31.4Z" fill="white"/>
</svg>
